<svg id="Capa_1" enable-background="new 0 0 512 512" height="512" viewBox="0 0 512 512" width="512" xmlns="http://www.w3.org/2000/svg"><g><g><path d="m231.693 122.063c.834 0 1.682-.14 2.513-.436 26.07-9.269 67.477-9.319 90.419-.106 3.843 1.543 8.21-.322 9.754-4.166 1.543-3.844-.321-8.211-4.166-9.754-26.686-10.715-71.065-10.762-101.033-.106-3.903 1.388-5.941 5.676-4.554 9.579 1.093 3.072 3.982 4.989 7.067 4.989z"/></g><g><path d="m310.919 303.313-37.786 37.78c-2.929 2.929-2.93 7.677-.001 10.606 1.464 1.465 3.384 2.197 5.304 2.197 1.919 0 3.838-.732 5.303-2.196l37.786-37.78c2.929-2.929 2.93-7.677.001-10.606-2.928-2.93-7.677-2.93-10.607-.001z"/></g><g><path d="m303.526 268.652c-2.928-2.93-7.677-2.93-10.606-.001l-61.087 61.076c-2.929 2.929-2.93 7.677-.001 10.606 1.464 1.465 3.384 2.197 5.304 2.197 1.919 0 3.838-.732 5.303-2.196l61.087-61.076c2.928-2.928 2.929-7.677 0-10.606z"/></g><g><path d="m279.542 200.787c-63.343 0-114.877 51.525-114.877 114.858 0 63.349 51.534 114.887 114.877 114.887 63.359 0 114.905-51.538 114.905-114.887 0-63.333-51.546-114.858-114.905-114.858zm0 214.745c-55.072 0-99.877-44.809-99.877-99.887 0-55.062 44.805-99.858 99.877-99.858 55.088 0 99.905 44.796 99.905 99.858 0 55.078-44.817 99.887-99.905 99.887z"/></g><g><path d="m474.008 149.104-88.173-21.536c-.022-.005-.045-.007-.067-.012-10.009-30.667-21.704-56.758-32.007-73.819-.391-.646-.771-1.301-1.151-1.956-3.419-5.885-8.585-14.781-21.648-14.781h-102.813c-13.062 0-18.229 8.896-21.648 14.782-.38.654-.76 1.309-1.154 1.959-10.552 17.45-22.578 44.391-32.755 76.063l-32.721 3.612-1.99-23.513c-.735-8.312-8.076-14.48-16.351-13.756l-68.501 5.781c-8.289.681-14.479 7.993-13.8 16.324l2.194 26.031-13.935 1.538c-15.927 1.746-27.488 13.631-27.488 28.257v23.014 210.692 28.115c0 15.606 12.698 28.303 28.306 28.303h193.569c17.893 6.967 37.34 10.798 57.667 10.798s39.774-3.831 57.667-10.798h74.513c4.142 0 7.5-3.358 7.5-7.5s-3.358-7.5-7.5-7.5h-45.338c26.872-17.527 48.151-42.933 60.538-72.916 1.227.101 2.455.17 3.679.17 24.768 0 44.917-20.147 44.917-44.911 0-22.835-17.115-41.733-39.183-44.561-4.557-24.984-14.962-47.951-29.738-67.433-3.206-25.987-8.843-51.669-15.69-75.304l78.397 19.149 1.16.282c9.767 2.375 16.824 4.092 20.623 8.172 4.09 4.393 5.914 12.974 5.914 27.82v236.228c0 7.335-5.982 13.303-13.335 13.303h-37.332c-4.142 0-7.5 3.358-7.5 7.5s3.358 7.5 7.5 7.5h37.332c15.624 0 28.335-12.697 28.335-28.303v-236.227c-.001-39.488-13.028-44.496-37.993-50.567zm-288.791-9.578c.134-.333.238-.679.324-1.031 10.027-32.178 22.102-59.562 32.64-76.988.439-.724.866-1.458 1.292-2.191 3.444-5.93 4.658-7.316 8.678-7.316h102.813c4.02 0 5.233 1.386 8.677 7.315.426.733.853 1.467 1.287 2.184 10.349 17.137 22.172 43.848 32.079 75.241.063.244.138.484.225.717 6.049 19.268 11.365 40.278 15.175 61.915-28.512-26.703-66.808-43.082-108.865-43.082-42.052 0-80.345 16.375-108.855 43.073 3.68-20.87 8.751-41.149 14.53-59.837zm-130.963-22.648h.005c.006 0 .013-.001.02-.001l68.554-5.785c.001 0 .099.043.105.105l2.02 23.862-68.62 7.566-2.159-25.613c-.006-.067.069-.13.075-.134zm-25.948 332.324c-7.337 0-13.306-5.968-13.306-13.303v-20.615h51.234c11.623 0 21.078-9.467 21.078-21.104v-77.316c0-4.142-3.358-7.5-7.5-7.5s-7.5 3.358-7.5 7.5v77.316c0 3.366-2.727 6.104-6.078 6.104h-51.234v-195.692h51.234c3.352 0 6.078 2.726 6.078 6.076v71.591c0 4.142 3.358 7.5 7.5 7.5s7.5-3.358 7.5-7.5v-71.591c0-11.621-9.456-21.076-21.078-21.076h-51.234v-15.514c0-8.106 7.321-12.601 14.129-13.348l138.722-15.312c-6.692 23.299-12.199 48.561-15.364 74.133-20.276 26.734-32.326 60.031-32.326 96.094 0 55.863 28.904 105.096 72.539 133.557zm251.236 10.798c-79.612 0-144.381-64.757-144.381-144.355s64.769-144.355 144.381-144.355 144.381 64.757 144.381 144.355-64.769 144.355-144.381 144.355zm180.976-128.455c0 15.952-12.555 29.026-28.305 29.866 4.357-14.503 6.71-29.864 6.71-45.766 0-4.379-.185-8.715-.534-13.005 12.731 3.44 22.129 15.093 22.129 28.905z"/></g></g></svg>